<svg xmlns="http://www.w3.org/2000/svg" version="1.1" xmlns:xlink="http://www.w3.org/1999/xlink" xmlns:svgjs="http://svgjs.dev/svgjs" width="1080" height="1920" preserveAspectRatio="none" viewBox="0 0 1080 1920"><g mask="url(&quot;#SvgjsMask1336&quot;)" fill="none"><use xlink:href="#SvgjsG1346" transform="translate(0, 0)" fill="rgba(255, 255, 255, 1)"></use><use xlink:href="#SvgjsG1346" transform="translate(0, 682)" fill="rgba(255, 255, 255, 1)"></use><use xlink:href="#SvgjsG1346" transform="translate(0, 1364)" fill="rgba(255, 255, 255, 1)"></use><use xlink:href="#SvgjsG1346" transform="translate(682, 0)" fill="rgba(255, 255, 255, 1)"></use><use xlink:href="#SvgjsG1346" transform="translate(682, 682)" fill="rgba(255, 255, 255, 1)"></use><use xlink:href="#SvgjsG1346" transform="translate(682, 1364)" fill="rgba(255, 255, 255, 1)"></use></g><defs><mask id="SvgjsMask1336"><rect width="1080" height="1920" fill="#ffffff"></rect></mask><g id="SvgjsG1337"><path d="M5.93 13.874L13.4 6.4l2.074 2.08-7.47 7.468z"></path><path d="M6.328 0.04h3.366v12.752H6.328z"></path><path d="M8.014 15.96L0.54 8.486l2.07-2.072 7.476 7.47z"></path></g><g id="SvgjsG1338"><path d="M1.099-0.001l13.803 7.969-13.803 7.969V-0.002z" fill-rule="evenodd"></path></g><g id="SvgjsG1344"><path d="M0.672 6.194h14.656v3.614H0.672z"></path><path d="M6.194 0.672h3.614v14.656H6.194z"></path></g><g id="SvgjsG1343"><path d="M3.044 12.188V8.93c0-2.836 2.475-5.244 5.463-5.245 3.022-0.004 5.465 2.352 5.465 5.245v3.258h1.351V8.93C15.332 5.276 12.27 2.325 8.51 2.325 4.777 2.325 1.689 5.333 1.689 8.93v3.258h1.355z"></path><path d="M5.463 14.702l-1.781 0.006V9.593h1.785c0.921 2.372 0 5.111 0 5.111m6.049-5.109H13.298V14.702l-1.783 0.006c-0.921-2.373 0-5.113 0-5.113"></path></g><g id="SvgjsG1345"><path d="M0 5.2h3.15v5.6H0z"></path><path d="M6.257 14.325L2.407 10.8v-5.511l3.85-3.614L7.141 8z"></path><path d="M6.257 1.675S7.14 4.852 7.14 8s-0.883 6.325-0.883 6.325m7.927 0.947l-1.304-0.671c0.015-0.03 1.562-3.093 1.562-6.825 0-3.707-1.789-6.755-1.807-6.785l1.258-0.754c0.082 0.137 2.015 3.412 2.015 7.538 0 4.101-1.653 7.361-1.724 7.497z"></path><path d="M11.799 13.516l-1.304-0.671c0.011-0.021 1.138-2.258 1.137-4.979 0-2.712-1.301-4.915-1.313-4.937l1.257-0.753c0.063 0.104 1.523 2.579 1.523 5.691 0 3.088-1.248 5.545-1.302 5.649z"></path><path d="M9.543 11.59l-1.304-0.671c0.006-0.012 0.696-1.387 0.696-3.053 0-1.64-0.793-3-0.801-3.013l1.259-0.752c0.041 0.069 1.009 1.708 1.01 3.765 0 2.033-0.823 3.656-0.859 3.724z"></path></g><g id="SvgjsG1341"><path d="M8 14.66l5.904-5.908c1.836-1.836 1.8-4.512 0.132-6.174A4.268 4.268 0 0 0 8 2.58a4.264 4.264 0 0 0-6.03-0.02C0.3 4.24 0.26 6.92 2.1 8.744L8 14.66z"></path></g><g id="SvgjsG1339"><path d="M0.019 3.384l7.963 4.597-7.963 4.598V3.384v0zM8 3.385l7.963 4.597-7.963 4.598V3.384 3.385z" fill-rule="evenodd"></path></g><g id="SvgjsG1340"><path d="M15.981 12.616l-7.963-4.598L15.981 3.421v9.195 0zM8 12.615L0.037 8.018 8 3.42v9.196V12.615z" fill-rule="evenodd"></path></g><g id="SvgjsG1342"><path d="M2.133 2.133h11.734v11.734H2.133z"></path></g><g id="SvgjsG1346"><use xlink:href="#SvgjsG1337" transform="translate(0, 0) scale(2.2)" fill="rgba(255, 255, 255, 1)"></use><use xlink:href="#SvgjsG1338" transform="translate(0, 68.2) scale(2.2)" fill="rgba(255, 255, 255, 1)"></use><use xlink:href="#SvgjsG1337" transform="translate(0, 136.4) scale(2.2)" fill="rgba(255, 255, 255, 1)"></use><use xlink:href="#SvgjsG1339" transform="translate(0, 204.60000000000002) scale(2.2)" fill="rgba(255, 255, 255, 1)"></use><use xlink:href="#SvgjsG1339" transform="translate(0, 272.8) scale(2.2)" fill="rgba(255, 255, 255, 1)"></use><use xlink:href="#SvgjsG1340" transform="translate(0, 341) scale(2.2)" fill="rgba(255, 255, 255, 1)"></use><use xlink:href="#SvgjsG1341" transform="translate(0, 409.20000000000005) scale(2.2)" fill="rgba(255, 255, 255, 1)"></use><use xlink:href="#SvgjsG1341" transform="translate(0, 477.40000000000003) scale(2.2)" fill="rgba(255, 255, 255, 1)"></use><use xlink:href="#SvgjsG1341" transform="translate(0, 545.6) scale(2.2)" fill="rgba(255, 255, 255, 1)"></use><use xlink:href="#SvgjsG1340" transform="translate(0, 613.8000000000001) scale(2.2)" fill="rgba(255, 255, 255, 1)"></use><use xlink:href="#SvgjsG1339" transform="translate(68.2, 0) scale(2.2)" fill="rgba(255, 255, 255, 1)"></use><use xlink:href="#SvgjsG1342" transform="translate(68.2, 68.2) scale(2.2)" fill="rgba(255, 255, 255, 1)"></use><use xlink:href="#SvgjsG1343" transform="translate(68.2, 136.4) scale(2.2)" fill="rgba(255, 255, 255, 1)"></use><use xlink:href="#SvgjsG1342" transform="translate(68.2, 204.60000000000002) scale(2.2)" fill="rgba(255, 255, 255, 1)"></use><use xlink:href="#SvgjsG1339" transform="translate(68.2, 272.8) scale(2.2)" fill="rgba(255, 255, 255, 1)"></use><use xlink:href="#SvgjsG1344" transform="translate(68.2, 341) scale(2.2)" fill="rgba(255, 255, 255, 1)"></use><use xlink:href="#SvgjsG1344" transform="translate(68.2, 409.20000000000005) scale(2.2)" fill="rgba(255, 255, 255, 1)"></use><use xlink:href="#SvgjsG1340" transform="translate(68.2, 477.40000000000003) scale(2.2)" fill="rgba(255, 255, 255, 1)"></use><use xlink:href="#SvgjsG1343" transform="translate(68.2, 545.6) scale(2.2)" fill="rgba(255, 255, 255, 1)"></use><use xlink:href="#SvgjsG1339" transform="translate(68.2, 613.8000000000001) scale(2.2)" fill="rgba(255, 255, 255, 1)"></use><use xlink:href="#SvgjsG1345" transform="translate(136.4, 0) scale(2.2)" fill="rgba(255, 255, 255, 1)"></use><use xlink:href="#SvgjsG1342" transform="translate(136.4, 68.2) scale(2.2)" fill="rgba(255, 255, 255, 1)"></use><use xlink:href="#SvgjsG1341" transform="translate(136.4, 136.4) scale(2.2)" fill="rgba(255, 255, 255, 1)"></use><use xlink:href="#SvgjsG1344" transform="translate(136.4, 204.60000000000002) scale(2.2)" fill="rgba(255, 255, 255, 1)"></use><use xlink:href="#SvgjsG1342" transform="translate(136.4, 272.8) scale(2.2)" fill="rgba(255, 255, 255, 1)"></use><use xlink:href="#SvgjsG1342" transform="translate(136.4, 341) scale(2.2)" fill="rgba(255, 255, 255, 1)"></use><use xlink:href="#SvgjsG1345" transform="translate(136.4, 409.20000000000005) scale(2.2)" fill="rgba(255, 255, 255, 1)"></use><use xlink:href="#SvgjsG1342" transform="translate(136.4, 477.40000000000003) scale(2.2)" fill="rgba(255, 255, 255, 1)"></use><use xlink:href="#SvgjsG1337" transform="translate(136.4, 545.6) scale(2.2)" fill="rgba(255, 255, 255, 1)"></use><use xlink:href="#SvgjsG1344" transform="translate(136.4, 613.8000000000001) scale(2.2)" fill="rgba(255, 255, 255, 1)"></use><use xlink:href="#SvgjsG1344" transform="translate(204.60000000000002, 0) scale(2.2)" fill="rgba(255, 255, 255, 1)"></use><use xlink:href="#SvgjsG1340" transform="translate(204.60000000000002, 68.2) scale(2.2)" fill="rgba(255, 255, 255, 1)"></use><use xlink:href="#SvgjsG1345" transform="translate(204.60000000000002, 136.4) scale(2.2)" fill="rgba(255, 255, 255, 1)"></use><use xlink:href="#SvgjsG1341" transform="translate(204.60000000000002, 204.60000000000002) scale(2.2)" fill="rgba(255, 255, 255, 1)"></use><use xlink:href="#SvgjsG1341" transform="translate(204.60000000000002, 272.8) scale(2.2)" fill="rgba(255, 255, 255, 1)"></use><use xlink:href="#SvgjsG1345" transform="translate(204.60000000000002, 341) scale(2.2)" fill="rgba(255, 255, 255, 1)"></use><use xlink:href="#SvgjsG1337" transform="translate(204.60000000000002, 409.20000000000005) scale(2.2)" fill="rgba(255, 255, 255, 1)"></use><use xlink:href="#SvgjsG1344" transform="translate(204.60000000000002, 477.40000000000003) scale(2.2)" fill="rgba(255, 255, 255, 1)"></use><use xlink:href="#SvgjsG1344" transform="translate(204.60000000000002, 545.6) scale(2.2)" fill="rgba(255, 255, 255, 1)"></use><use xlink:href="#SvgjsG1345" transform="translate(204.60000000000002, 613.8000000000001) scale(2.2)" fill="rgba(255, 255, 255, 1)"></use><use xlink:href="#SvgjsG1342" transform="translate(272.8, 0) scale(2.2)" fill="rgba(255, 255, 255, 1)"></use><use xlink:href="#SvgjsG1337" transform="translate(272.8, 68.2) scale(2.2)" fill="rgba(255, 255, 255, 1)"></use><use xlink:href="#SvgjsG1345" transform="translate(272.8, 136.4) scale(2.2)" fill="rgba(255, 255, 255, 1)"></use><use xlink:href="#SvgjsG1337" transform="translate(272.8, 204.60000000000002) scale(2.2)" fill="rgba(255, 255, 255, 1)"></use><use xlink:href="#SvgjsG1340" transform="translate(272.8, 272.8) scale(2.2)" fill="rgba(255, 255, 255, 1)"></use><use xlink:href="#SvgjsG1345" transform="translate(272.8, 341) scale(2.2)" fill="rgba(255, 255, 255, 1)"></use><use xlink:href="#SvgjsG1342" transform="translate(272.8, 409.20000000000005) scale(2.2)" fill="rgba(255, 255, 255, 1)"></use><use xlink:href="#SvgjsG1344" transform="translate(272.8, 477.40000000000003) scale(2.2)" fill="rgba(255, 255, 255, 1)"></use><use xlink:href="#SvgjsG1339" transform="translate(272.8, 545.6) scale(2.2)" fill="rgba(255, 255, 255, 1)"></use><use xlink:href="#SvgjsG1337" transform="translate(272.8, 613.8000000000001) scale(2.2)" fill="rgba(255, 255, 255, 1)"></use><use xlink:href="#SvgjsG1341" transform="translate(341, 0) scale(2.2)" fill="rgba(255, 255, 255, 1)"></use><use xlink:href="#SvgjsG1339" transform="translate(341, 68.2) scale(2.2)" fill="rgba(255, 255, 255, 1)"></use><use xlink:href="#SvgjsG1342" transform="translate(341, 136.4) scale(2.2)" fill="rgba(255, 255, 255, 1)"></use><use xlink:href="#SvgjsG1338" transform="translate(341, 204.60000000000002) scale(2.2)" fill="rgba(255, 255, 255, 1)"></use><use xlink:href="#SvgjsG1340" transform="translate(341, 272.8) scale(2.2)" fill="rgba(255, 255, 255, 1)"></use><use xlink:href="#SvgjsG1339" transform="translate(341, 341) scale(2.2)" fill="rgba(255, 255, 255, 1)"></use><use xlink:href="#SvgjsG1338" transform="translate(341, 409.20000000000005) scale(2.2)" fill="rgba(255, 255, 255, 1)"></use><use xlink:href="#SvgjsG1339" transform="translate(341, 477.40000000000003) scale(2.2)" fill="rgba(255, 255, 255, 1)"></use><use xlink:href="#SvgjsG1343" transform="translate(341, 545.6) scale(2.2)" fill="rgba(255, 255, 255, 1)"></use><use xlink:href="#SvgjsG1339" transform="translate(341, 613.8000000000001) scale(2.2)" fill="rgba(255, 255, 255, 1)"></use><use xlink:href="#SvgjsG1344" transform="translate(409.20000000000005, 0) scale(2.2)" fill="rgba(255, 255, 255, 1)"></use><use xlink:href="#SvgjsG1345" transform="translate(409.20000000000005, 68.2) scale(2.2)" fill="rgba(255, 255, 255, 1)"></use><use xlink:href="#SvgjsG1343" transform="translate(409.20000000000005, 136.4) scale(2.2)" fill="rgba(255, 255, 255, 1)"></use><use xlink:href="#SvgjsG1337" transform="translate(409.20000000000005, 204.60000000000002) scale(2.2)" fill="rgba(255, 255, 255, 1)"></use><use xlink:href="#SvgjsG1340" transform="translate(409.20000000000005, 272.8) scale(2.2)" fill="rgba(255, 255, 255, 1)"></use><use xlink:href="#SvgjsG1345" transform="translate(409.20000000000005, 341) scale(2.2)" fill="rgba(255, 255, 255, 1)"></use><use xlink:href="#SvgjsG1338" transform="translate(409.20000000000005, 409.20000000000005) scale(2.2)" fill="rgba(255, 255, 255, 1)"></use><use xlink:href="#SvgjsG1343" transform="translate(409.20000000000005, 477.40000000000003) scale(2.2)" fill="rgba(255, 255, 255, 1)"></use><use xlink:href="#SvgjsG1341" transform="translate(409.20000000000005, 545.6) scale(2.2)" fill="rgba(255, 255, 255, 1)"></use><use xlink:href="#SvgjsG1340" transform="translate(409.20000000000005, 613.8000000000001) scale(2.2)" fill="rgba(255, 255, 255, 1)"></use><use xlink:href="#SvgjsG1341" transform="translate(477.40000000000003, 0) scale(2.2)" fill="rgba(255, 255, 255, 1)"></use><use xlink:href="#SvgjsG1340" transform="translate(477.40000000000003, 68.2) scale(2.2)" fill="rgba(255, 255, 255, 1)"></use><use xlink:href="#SvgjsG1339" transform="translate(477.40000000000003, 136.4) scale(2.2)" fill="rgba(255, 255, 255, 1)"></use><use xlink:href="#SvgjsG1345" transform="translate(477.40000000000003, 204.60000000000002) scale(2.2)" fill="rgba(255, 255, 255, 1)"></use><use xlink:href="#SvgjsG1345" transform="translate(477.40000000000003, 272.8) scale(2.2)" fill="rgba(255, 255, 255, 1)"></use><use xlink:href="#SvgjsG1342" transform="translate(477.40000000000003, 341) scale(2.2)" fill="rgba(255, 255, 255, 1)"></use><use xlink:href="#SvgjsG1343" transform="translate(477.40000000000003, 409.20000000000005) scale(2.2)" fill="rgba(255, 255, 255, 1)"></use><use xlink:href="#SvgjsG1344" transform="translate(477.40000000000003, 477.40000000000003) scale(2.2)" fill="rgba(255, 255, 255, 1)"></use><use xlink:href="#SvgjsG1344" transform="translate(477.40000000000003, 545.6) scale(2.2)" fill="rgba(255, 255, 255, 1)"></use><use xlink:href="#SvgjsG1337" transform="translate(477.40000000000003, 613.8000000000001) scale(2.2)" fill="rgba(255, 255, 255, 1)"></use><use xlink:href="#SvgjsG1343" transform="translate(545.6, 0) scale(2.2)" fill="rgba(255, 255, 255, 1)"></use><use xlink:href="#SvgjsG1341" transform="translate(545.6, 68.2) scale(2.2)" fill="rgba(255, 255, 255, 1)"></use><use xlink:href="#SvgjsG1343" transform="translate(545.6, 136.4) scale(2.2)" fill="rgba(255, 255, 255, 1)"></use><use xlink:href="#SvgjsG1344" transform="translate(545.6, 204.60000000000002) scale(2.2)" fill="rgba(255, 255, 255, 1)"></use><use xlink:href="#SvgjsG1345" transform="translate(545.6, 272.8) scale(2.2)" fill="rgba(255, 255, 255, 1)"></use><use xlink:href="#SvgjsG1344" transform="translate(545.6, 341) scale(2.2)" fill="rgba(255, 255, 255, 1)"></use><use xlink:href="#SvgjsG1341" transform="translate(545.6, 409.20000000000005) scale(2.2)" fill="rgba(255, 255, 255, 1)"></use><use xlink:href="#SvgjsG1345" transform="translate(545.6, 477.40000000000003) scale(2.2)" fill="rgba(255, 255, 255, 1)"></use><use xlink:href="#SvgjsG1338" transform="translate(545.6, 545.6) scale(2.2)" fill="rgba(255, 255, 255, 1)"></use><use xlink:href="#SvgjsG1341" transform="translate(545.6, 613.8000000000001) scale(2.2)" fill="rgba(255, 255, 255, 1)"></use><use xlink:href="#SvgjsG1340" transform="translate(613.8000000000001, 0) scale(2.2)" fill="rgba(255, 255, 255, 1)"></use><use xlink:href="#SvgjsG1340" transform="translate(613.8000000000001, 68.2) scale(2.2)" fill="rgba(255, 255, 255, 1)"></use><use xlink:href="#SvgjsG1343" transform="translate(613.8000000000001, 136.4) scale(2.2)" fill="rgba(255, 255, 255, 1)"></use><use xlink:href="#SvgjsG1340" transform="translate(613.8000000000001, 204.60000000000002) scale(2.2)" fill="rgba(255, 255, 255, 1)"></use><use xlink:href="#SvgjsG1343" transform="translate(613.8000000000001, 272.8) scale(2.2)" fill="rgba(255, 255, 255, 1)"></use><use xlink:href="#SvgjsG1337" transform="translate(613.8000000000001, 341) scale(2.2)" fill="rgba(255, 255, 255, 1)"></use><use xlink:href="#SvgjsG1337" transform="translate(613.8000000000001, 409.20000000000005) scale(2.2)" fill="rgba(255, 255, 255, 1)"></use><use xlink:href="#SvgjsG1342" transform="translate(613.8000000000001, 477.40000000000003) scale(2.2)" fill="rgba(255, 255, 255, 1)"></use><use xlink:href="#SvgjsG1337" transform="translate(613.8000000000001, 545.6) scale(2.2)" fill="rgba(255, 255, 255, 1)"></use><use xlink:href="#SvgjsG1339" transform="translate(613.8000000000001, 613.8000000000001) scale(2.2)" fill="rgba(255, 255, 255, 1)"></use></g></defs></svg>