<svg id="visual" viewBox="0 0 1080 1920" width="1080" height="1920" xmlns="http://www.w3.org/2000/svg" xmlns:xlink="http://www.w3.org/1999/xlink" version="1.1"><rect x="0" y="0" width="1080" height="1920" fill="#282828"></rect><path d="M0 1625L30 1647.5C60 1670 120 1715 180 1737.2C240 1759.3 300 1758.7 360 1724.7C420 1690.7 480 1623.3 540 1611.2C600 1599 660 1642 720 1636.2C780 1630.3 840 1575.7 900 1550.3C960 1525 1020 1529 1050 1531L1080 1533L1080 1921L1050 1921C1020 1921 960 1921 900 1921C840 1921 780 1921 720 1921C660 1921 600 1921 540 1921C480 1921 420 1921 360 1921C300 1921 240 1921 180 1921C120 1921 60 1921 30 1921L0 1921Z" fill="#ff1111" stroke-linecap="round" stroke-linejoin="miter"></path></svg>